<?xml version='1.0' encoding='utf-8'?>
<svg xmlns="http://www.w3.org/2000/svg" width="1240" height="1280" viewBox="0 0 1240 1280" role="img" aria-labelledby="title description" font-family="Segoe UI, Arial, sans-serif"><title id="title">Archive size versus compression time by effort</title><desc id="description">Silesia Windows application benchmark. ZIP and Zstandard cases are separate. The vertical time axis is logarithmic; lines connect each tool's explicit effort settings. Outlined points are measured non-dominated points, not confidence-backed winners. Rows list exact archive bytes and median seconds with observed min-max ranges.</desc><rect width="1240" height="1280" fill="#ffffff" /><text x="36" y="45" font-size="24" font-weight="bold" fill="#24343a" letter-spacing="0">Compression tradeoffs on real files</text><text x="36" y="69" font-size="13" font-weight="normal" fill="#24343a" letter-spacing="0">Smaller archive to the left; faster creation lower on each logarithmic time axis</text><text x="36" y="91" font-size="12" font-weight="normal" fill="#24343a" letter-spacing="0">Silesia subset  |  source 33f71ee38ee3  |  10 warm-cache runs per point</text><text x="36" y="143" font-size="18" font-weight="bold" fill="#24343a" letter-spacing="0">ZIP / mixed-files</text><text x="36" y="164" font-size="12" font-weight="normal" fill="#24343a" letter-spacing="0">Input 51,770,558 bytes  |  exact archive size; create wall time</text><line x1="72.0" x2="72.0" y1="200" y2="429" stroke="#e5e9ea" /><text x="60" y="448" font-size="11" font-weight="normal" fill="#24343a" letter-spacing="0">0</text><line x1="215.5" x2="215.5" y1="200" y2="429" stroke="#e5e9ea" /><text x="204" y="448" font-size="11" font-weight="normal" fill="#24343a" letter-spacing="0">12</text><line x1="359.0" x2="359.0" y1="200" y2="429" stroke="#e5e9ea" /><text x="347" y="448" font-size="11" font-weight="normal" fill="#24343a" letter-spacing="0">25</text><line x1="502.5" x2="502.5" y1="200" y2="429" stroke="#e5e9ea" /><text x="490" y="448" font-size="11" font-weight="normal" fill="#24343a" letter-spacing="0">37</text><line x1="646.0" x2="646.0" y1="200" y2="429" stroke="#e5e9ea" /><text x="634" y="448" font-size="11" font-weight="normal" fill="#24343a" letter-spacing="0">49</text><line x1="72" x2="646" y1="429.0" y2="429.0" stroke="#e5e9ea" /><text x="18" y="433" font-size="11" font-weight="normal" fill="#24343a" letter-spacing="0">0.1s</text><line x1="72" x2="646" y1="314.5" y2="314.5" stroke="#e5e9ea" /><text x="18" y="318" font-size="11" font-weight="normal" fill="#24343a" letter-spacing="0">1s</text><line x1="72" x2="646" y1="200.0" y2="200.0" stroke="#e5e9ea" /><text x="18" y="204" font-size="11" font-weight="normal" fill="#24343a" letter-spacing="0">10s</text><rect x="72" y="200" width="574" height="229" fill="none" stroke="#90a2a6" /><text x="265" y="467" font-size="12" font-weight="normal" fill="#24343a" letter-spacing="0">Archive size (MiB)</text><polyline points="314.7,354.3 289.0,332.2 285.6,316.9 283.2,290.3 283.0,282.3" fill="none" stroke="#087e83" stroke-width="2" stroke-opacity="0.55" /><polyline points="288.4,391.7 288.4,391.7 275.1,314.2 273.9,267.9 273.5,225.4" fill="none" stroke="#b15a22" stroke-width="2" stroke-opacity="0.55" /><g aria-label="SuperZip L1: 21891618 bytes, 0.449 s"><title>SuperZip L1: 21891618 bytes, 0.449 s</title><line x1="314.721" x2="314.721" y1="355.755" y2="352.618" stroke="#087e83" stroke-width="2" /><line x1="310.721" x2="318.721" y1="355.755" y2="355.755" stroke="#087e83" stroke-width="2" /><line x1="310.721" x2="318.721" y1="352.618" y2="352.618" stroke="#087e83" stroke-width="2" /><circle cx="314.7" cy="354.3" r="6" fill="#087e83" stroke="#ffffff" stroke-width="2" /></g><g aria-label="7-Zip L1: 19521739 bytes, 0.212 s"><title>7-Zip L1: 19521739 bytes, 0.212 s</title><line x1="288.445" x2="288.445" y1="392.167" y2="391.369" stroke="#b15a22" stroke-width="2" /><line x1="284.445" x2="292.445" y1="392.167" y2="392.167" stroke="#b15a22" stroke-width="2" /><line x1="284.445" x2="292.445" y1="391.369" y2="391.369" stroke="#b15a22" stroke-width="2" /><circle cx="288.4" cy="391.7" r="6" fill="#b15a22" stroke="#ffffff" stroke-width="2" /></g><g aria-label="SuperZip L3: 19573311 bytes, 0.700 s"><title>SuperZip L3: 19573311 bytes, 0.700 s</title><line x1="289.017" x2="289.017" y1="332.653" y2="330.739" stroke="#087e83" stroke-width="2" /><line x1="285.017" x2="293.017" y1="332.653" y2="332.653" stroke="#087e83" stroke-width="2" /><line x1="285.017" x2="293.017" y1="330.739" y2="330.739" stroke="#087e83" stroke-width="2" /><circle cx="289.0" cy="332.2" r="6" fill="#087e83" stroke="#ffffff" stroke-width="2" /></g><g aria-label="7-Zip L3: 19521739 bytes, 0.212 s"><title>7-Zip L3: 19521739 bytes, 0.212 s</title><line x1="288.445" x2="288.445" y1="392.040" y2="390.367" stroke="#b15a22" stroke-width="2" /><line x1="284.445" x2="292.445" y1="392.040" y2="392.040" stroke="#b15a22" stroke-width="2" /><line x1="284.445" x2="292.445" y1="390.367" y2="390.367" stroke="#b15a22" stroke-width="2" /><circle cx="288.4" cy="391.7" r="6" fill="#b15a22" stroke="#24343a" stroke-width="2" /></g><g aria-label="SuperZip L5: 19263206 bytes, 0.952 s"><title>SuperZip L5: 19263206 bytes, 0.952 s</title><line x1="285.579" x2="285.579" y1="317.364" y2="315.520" stroke="#087e83" stroke-width="2" /><line x1="281.579" x2="289.579" y1="317.364" y2="317.364" stroke="#087e83" stroke-width="2" /><line x1="281.579" x2="289.579" y1="315.520" y2="315.520" stroke="#087e83" stroke-width="2" /><circle cx="285.6" cy="316.9" r="6" fill="#087e83" stroke="#24343a" stroke-width="2" /></g><g aria-label="7-Zip L5: 18318370 bytes, 1.005 s"><title>7-Zip L5: 18318370 bytes, 1.005 s</title><line x1="275.103" x2="275.103" y1="314.571" y2="313.641" stroke="#b15a22" stroke-width="2" /><line x1="271.103" x2="279.103" y1="314.571" y2="314.571" stroke="#b15a22" stroke-width="2" /><line x1="271.103" x2="279.103" y1="313.641" y2="313.641" stroke="#b15a22" stroke-width="2" /><circle cx="275.1" cy="314.2" r="6" fill="#b15a22" stroke="#24343a" stroke-width="2" /></g><g aria-label="SuperZip L7: 19048811 bytes, 1.628 s"><title>SuperZip L7: 19048811 bytes, 1.628 s</title><line x1="283.201" x2="283.201" y1="290.789" y2="289.648" stroke="#087e83" stroke-width="2" /><line x1="279.201" x2="287.201" y1="290.789" y2="290.789" stroke="#087e83" stroke-width="2" /><line x1="279.201" x2="287.201" y1="289.648" y2="289.648" stroke="#087e83" stroke-width="2" /><circle cx="283.2" cy="290.3" r="6" fill="#087e83" stroke="#ffffff" stroke-width="2" /></g><g aria-label="7-Zip L7: 18212231 bytes, 2.553 s"><title>7-Zip L7: 18212231 bytes, 2.553 s</title><line x1="273.926" x2="273.926" y1="268.074" y2="266.891" stroke="#b15a22" stroke-width="2" /><line x1="269.926" x2="277.926" y1="268.074" y2="268.074" stroke="#b15a22" stroke-width="2" /><line x1="269.926" x2="277.926" y1="266.891" y2="266.891" stroke="#b15a22" stroke-width="2" /><circle cx="273.9" cy="267.9" r="6" fill="#b15a22" stroke="#24343a" stroke-width="2" /></g><g aria-label="SuperZip L9: 19030687 bytes, 1.910 s"><title>SuperZip L9: 19030687 bytes, 1.910 s</title><line x1="283.001" x2="283.001" y1="282.554" y2="281.765" stroke="#087e83" stroke-width="2" /><line x1="279.001" x2="287.001" y1="282.554" y2="282.554" stroke="#087e83" stroke-width="2" /><line x1="279.001" x2="287.001" y1="281.765" y2="281.765" stroke="#087e83" stroke-width="2" /><circle cx="283.0" cy="282.3" r="6" fill="#087e83" stroke="#ffffff" stroke-width="2" /></g><g aria-label="7-Zip L9: 18177358 bytes, 6.006 s"><title>7-Zip L9: 18177358 bytes, 6.006 s</title><line x1="273.539" x2="273.539" y1="225.754" y2="224.624" stroke="#b15a22" stroke-width="2" /><line x1="269.539" x2="277.539" y1="225.754" y2="225.754" stroke="#b15a22" stroke-width="2" /><line x1="269.539" x2="277.539" y1="224.624" y2="224.624" stroke="#b15a22" stroke-width="2" /><circle cx="273.5" cy="225.4" r="6" fill="#b15a22" stroke="#24343a" stroke-width="2" /></g><text x="683" y="192" font-size="12" font-weight="bold" fill="#24343a" letter-spacing="0">Tool / effort</text><text x="854" y="192" font-size="12" font-weight="bold" fill="#24343a" letter-spacing="0">Archive bytes</text><text x="998" y="192" font-size="12" font-weight="bold" fill="#24343a" letter-spacing="0">Create s [min-max]</text><circle cx="693" cy="213" r="5" fill="#087e83" /><text x="708" y="217" font-size="12" font-weight="normal" fill="#24343a" letter-spacing="0">SuperZip L1</text><text x="854" y="217" font-size="12" font-weight="normal" fill="#24343a" letter-spacing="0">21,891,618</text><text x="998" y="217" font-size="12" font-weight="normal" fill="#24343a" letter-spacing="0">0.449 [0.436-0.465]</text><circle cx="693" cy="236" r="5" fill="#087e83" /><text x="708" y="240" font-size="12" font-weight="normal" fill="#24343a" letter-spacing="0">SuperZip L3</text><text x="854" y="240" font-size="12" font-weight="normal" fill="#24343a" letter-spacing="0">19,573,311</text><text x="998" y="240" font-size="12" font-weight="normal" fill="#24343a" letter-spacing="0">0.700 [0.694-0.721]</text><circle cx="693" cy="259" r="5" fill="#087e83" /><text x="708" y="263" font-size="12" font-weight="normal" fill="#24343a" letter-spacing="0">SuperZip L5</text><text x="854" y="263" font-size="12" font-weight="normal" fill="#24343a" letter-spacing="0">19,263,206</text><text x="998" y="263" font-size="12" font-weight="normal" fill="#24343a" letter-spacing="0">0.952 [0.944-0.980]</text><circle cx="693" cy="282" r="5" fill="#087e83" /><text x="708" y="286" font-size="12" font-weight="normal" fill="#24343a" letter-spacing="0">SuperZip L7</text><text x="854" y="286" font-size="12" font-weight="normal" fill="#24343a" letter-spacing="0">19,048,811</text><text x="998" y="286" font-size="12" font-weight="normal" fill="#24343a" letter-spacing="0">1.628 [1.611-1.648]</text><circle cx="693" cy="305" r="5" fill="#087e83" /><text x="708" y="309" font-size="12" font-weight="normal" fill="#24343a" letter-spacing="0">SuperZip L9</text><text x="854" y="309" font-size="12" font-weight="normal" fill="#24343a" letter-spacing="0">19,030,687</text><text x="998" y="309" font-size="12" font-weight="normal" fill="#24343a" letter-spacing="0">1.910 [1.901-1.931]</text><circle cx="693" cy="328" r="5" fill="#b15a22" /><text x="708" y="332" font-size="12" font-weight="normal" fill="#24343a" letter-spacing="0">7-Zip L1</text><text x="854" y="332" font-size="12" font-weight="normal" fill="#24343a" letter-spacing="0">19,521,739</text><text x="998" y="332" font-size="12" font-weight="normal" fill="#24343a" letter-spacing="0">0.212 [0.210-0.213]</text><circle cx="693" cy="351" r="5" fill="#b15a22" /><text x="708" y="355" font-size="12" font-weight="normal" fill="#24343a" letter-spacing="0">7-Zip L3</text><text x="854" y="355" font-size="12" font-weight="normal" fill="#24343a" letter-spacing="0">19,521,739</text><text x="998" y="355" font-size="12" font-weight="normal" fill="#24343a" letter-spacing="0">0.212 [0.210-0.217]</text><circle cx="693" cy="374" r="5" fill="#b15a22" /><text x="708" y="378" font-size="12" font-weight="normal" fill="#24343a" letter-spacing="0">7-Zip L5</text><text x="854" y="378" font-size="12" font-weight="normal" fill="#24343a" letter-spacing="0">18,318,370</text><text x="998" y="378" font-size="12" font-weight="normal" fill="#24343a" letter-spacing="0">1.005 [0.999-1.017]</text><circle cx="693" cy="397" r="5" fill="#b15a22" /><text x="708" y="401" font-size="12" font-weight="normal" fill="#24343a" letter-spacing="0">7-Zip L7</text><text x="854" y="401" font-size="12" font-weight="normal" fill="#24343a" letter-spacing="0">18,212,231</text><text x="998" y="401" font-size="12" font-weight="normal" fill="#24343a" letter-spacing="0">2.553 [2.544-2.605]</text><circle cx="693" cy="420" r="5" fill="#b15a22" /><text x="708" y="424" font-size="12" font-weight="normal" fill="#24343a" letter-spacing="0">7-Zip L9</text><text x="854" y="424" font-size="12" font-weight="normal" fill="#24343a" letter-spacing="0">18,177,358</text><text x="998" y="424" font-size="12" font-weight="normal" fill="#24343a" letter-spacing="0">6.006 [5.958-6.095]</text><text x="684" y="466" font-size="11" font-weight="normal" fill="#24343a" letter-spacing="0">Dark outline: measured non-dominated point within this case</text><text x="36" y="518" font-size="18" font-weight="bold" fill="#24343a" letter-spacing="0">ZST / mozilla</text><text x="36" y="539" font-size="12" font-weight="normal" fill="#24343a" letter-spacing="0">Input 51,220,480 bytes  |  exact archive size; create wall time</text><line x1="72.0" x2="72.0" y1="575" y2="804" stroke="#e5e9ea" /><text x="60" y="823" font-size="11" font-weight="normal" fill="#24343a" letter-spacing="0">0</text><line x1="215.5" x2="215.5" y1="575" y2="804" stroke="#e5e9ea" /><text x="204" y="823" font-size="11" font-weight="normal" fill="#24343a" letter-spacing="0">12</text><line x1="359.0" x2="359.0" y1="575" y2="804" stroke="#e5e9ea" /><text x="347" y="823" font-size="11" font-weight="normal" fill="#24343a" letter-spacing="0">24</text><line x1="502.5" x2="502.5" y1="575" y2="804" stroke="#e5e9ea" /><text x="490" y="823" font-size="11" font-weight="normal" fill="#24343a" letter-spacing="0">37</text><line x1="646.0" x2="646.0" y1="575" y2="804" stroke="#e5e9ea" /><text x="634" y="823" font-size="11" font-weight="normal" fill="#24343a" letter-spacing="0">49</text><line x1="72" x2="646" y1="804.0" y2="804.0" stroke="#e5e9ea" /><text x="18" y="808" font-size="11" font-weight="normal" fill="#24343a" letter-spacing="0">0.01s</text><line x1="72" x2="646" y1="746.8" y2="746.8" stroke="#e5e9ea" /><text x="18" y="751" font-size="11" font-weight="normal" fill="#24343a" letter-spacing="0">0.1s</text><line x1="72" x2="646" y1="689.5" y2="689.5" stroke="#e5e9ea" /><text x="18" y="694" font-size="11" font-weight="normal" fill="#24343a" letter-spacing="0">1s</text><line x1="72" x2="646" y1="632.2" y2="632.2" stroke="#e5e9ea" /><text x="18" y="636" font-size="11" font-weight="normal" fill="#24343a" letter-spacing="0">10s</text><line x1="72" x2="646" y1="575.0" y2="575.0" stroke="#e5e9ea" /><text x="18" y="579" font-size="11" font-weight="normal" fill="#24343a" letter-spacing="0">100s</text><rect x="72" y="575" width="574" height="229" fill="none" stroke="#90a2a6" /><text x="265" y="842" font-size="12" font-weight="normal" fill="#24343a" letter-spacing="0">Archive size (MiB)</text><polyline points="295.8,738.0 278.1,731.1 271.2,720.6 254.6,650.3 239.5,628.6" fill="none" stroke="#087e83" stroke-width="2" stroke-opacity="0.55" /><polyline points="295.9,772.8 276.9,762.2 270.3,749.0 263.3,738.7 259.6,727.0" fill="none" stroke="#b15a22" stroke-width="2" stroke-opacity="0.55" /><g aria-label="SuperZip L1: 19968243 bytes, 0.142 s"><title>SuperZip L1: 19968243 bytes, 0.142 s</title><line x1="295.773" x2="295.773" y1="738.626" y2="735.855" stroke="#087e83" stroke-width="2" /><line x1="291.773" x2="299.773" y1="738.626" y2="738.626" stroke="#087e83" stroke-width="2" /><line x1="291.773" x2="299.773" y1="735.855" y2="735.855" stroke="#087e83" stroke-width="2" /><circle cx="295.8" cy="738.0" r="6" fill="#087e83" stroke="#ffffff" stroke-width="2" /></g><g aria-label="Zstd L1: 19983517 bytes, 0.035 s"><title>Zstd L1: 19983517 bytes, 0.035 s</title><line x1="295.944" x2="295.944" y1="773.525" y2="771.055" stroke="#b15a22" stroke-width="2" /><line x1="291.944" x2="299.944" y1="773.525" y2="773.525" stroke="#b15a22" stroke-width="2" /><line x1="291.944" x2="299.944" y1="771.055" y2="771.055" stroke="#b15a22" stroke-width="2" /><circle cx="295.9" cy="772.8" r="6" fill="#b15a22" stroke="#24343a" stroke-width="2" /></g><g aria-label="SuperZip L3: 18387142 bytes, 0.188 s"><title>SuperZip L3: 18387142 bytes, 0.188 s</title><line x1="278.055" x2="278.055" y1="732.310" y2="729.827" stroke="#087e83" stroke-width="2" /><line x1="274.055" x2="282.055" y1="732.310" y2="732.310" stroke="#087e83" stroke-width="2" /><line x1="274.055" x2="282.055" y1="729.827" y2="729.827" stroke="#087e83" stroke-width="2" /><circle cx="278.1" cy="731.1" r="6" fill="#087e83" stroke="#ffffff" stroke-width="2" /></g><g aria-label="Zstd L3: 18281292 bytes, 0.054 s"><title>Zstd L3: 18281292 bytes, 0.054 s</title><line x1="276.868" x2="276.868" y1="762.549" y2="761.776" stroke="#b15a22" stroke-width="2" /><line x1="272.868" x2="280.868" y1="762.549" y2="762.549" stroke="#b15a22" stroke-width="2" /><line x1="272.868" x2="280.868" y1="761.776" y2="761.776" stroke="#b15a22" stroke-width="2" /><circle cx="276.9" cy="762.2" r="6" fill="#b15a22" stroke="#24343a" stroke-width="2" /></g><g aria-label="SuperZip L5: 17776792 bytes, 0.286 s"><title>SuperZip L5: 17776792 bytes, 0.286 s</title><line x1="271.215" x2="271.215" y1="721.460" y2="719.561" stroke="#087e83" stroke-width="2" /><line x1="267.215" x2="275.215" y1="721.460" y2="721.460" stroke="#087e83" stroke-width="2" /><line x1="267.215" x2="275.215" y1="719.561" y2="719.561" stroke="#087e83" stroke-width="2" /><circle cx="271.2" cy="720.6" r="6" fill="#087e83" stroke="#ffffff" stroke-width="2" /></g><g aria-label="Zstd L5: 17697993 bytes, 0.091 s"><title>Zstd L5: 17697993 bytes, 0.091 s</title><line x1="270.332" x2="270.332" y1="749.544" y2="748.217" stroke="#b15a22" stroke-width="2" /><line x1="266.332" x2="274.332" y1="749.544" y2="749.544" stroke="#b15a22" stroke-width="2" /><line x1="266.332" x2="274.332" y1="748.217" y2="748.217" stroke="#b15a22" stroke-width="2" /><circle cx="270.3" cy="749.0" r="6" fill="#b15a22" stroke="#24343a" stroke-width="2" /></g><g aria-label="SuperZip L7: 16294414 bytes, 4.845 s"><title>SuperZip L7: 16294414 bytes, 4.845 s</title><line x1="254.603" x2="254.603" y1="650.457" y2="649.360" stroke="#087e83" stroke-width="2" /><line x1="250.603" x2="258.603" y1="650.457" y2="650.457" stroke="#087e83" stroke-width="2" /><line x1="250.603" x2="258.603" y1="649.360" y2="649.360" stroke="#087e83" stroke-width="2" /><circle cx="254.6" cy="650.3" r="6" fill="#087e83" stroke="#24343a" stroke-width="2" /></g><g aria-label="Zstd L7: 17073567 bytes, 0.138 s"><title>Zstd L7: 17073567 bytes, 0.138 s</title><line x1="263.334" x2="263.334" y1="738.933" y2="737.815" stroke="#b15a22" stroke-width="2" /><line x1="259.334" x2="267.334" y1="738.933" y2="738.933" stroke="#b15a22" stroke-width="2" /><line x1="259.334" x2="267.334" y1="737.815" y2="737.815" stroke="#b15a22" stroke-width="2" /><circle cx="263.3" cy="738.7" r="6" fill="#b15a22" stroke="#24343a" stroke-width="2" /></g><g aria-label="SuperZip L9: 14950836 bytes, 11.564 s"><title>SuperZip L9: 14950836 bytes, 11.564 s</title><line x1="239.546" x2="239.546" y1="629.223" y2="628.212" stroke="#087e83" stroke-width="2" /><line x1="235.546" x2="243.546" y1="629.223" y2="629.223" stroke="#087e83" stroke-width="2" /><line x1="235.546" x2="243.546" y1="628.212" y2="628.212" stroke="#087e83" stroke-width="2" /><circle cx="239.5" cy="628.6" r="6" fill="#087e83" stroke="#24343a" stroke-width="2" /></g><g aria-label="Zstd L9: 16735963 bytes, 0.221 s"><title>Zstd L9: 16735963 bytes, 0.221 s</title><line x1="259.551" x2="259.551" y1="727.270" y2="725.825" stroke="#b15a22" stroke-width="2" /><line x1="255.551" x2="263.551" y1="727.270" y2="727.270" stroke="#b15a22" stroke-width="2" /><line x1="255.551" x2="263.551" y1="725.825" y2="725.825" stroke="#b15a22" stroke-width="2" /><circle cx="259.6" cy="727.0" r="6" fill="#b15a22" stroke="#24343a" stroke-width="2" /></g><text x="683" y="567" font-size="12" font-weight="bold" fill="#24343a" letter-spacing="0">Tool / effort</text><text x="854" y="567" font-size="12" font-weight="bold" fill="#24343a" letter-spacing="0">Archive bytes</text><text x="998" y="567" font-size="12" font-weight="bold" fill="#24343a" letter-spacing="0">Create s [min-max]</text><circle cx="693" cy="588" r="5" fill="#087e83" /><text x="708" y="592" font-size="12" font-weight="normal" fill="#24343a" letter-spacing="0">SuperZip L1</text><text x="854" y="592" font-size="12" font-weight="normal" fill="#24343a" letter-spacing="0">19,968,243</text><text x="998" y="592" font-size="12" font-weight="normal" fill="#24343a" letter-spacing="0">0.142 [0.139-0.155]</text><circle cx="693" cy="611" r="5" fill="#087e83" /><text x="708" y="615" font-size="12" font-weight="normal" fill="#24343a" letter-spacing="0">SuperZip L3</text><text x="854" y="615" font-size="12" font-weight="normal" fill="#24343a" letter-spacing="0">18,387,142</text><text x="998" y="615" font-size="12" font-weight="normal" fill="#24343a" letter-spacing="0">0.188 [0.179-0.198]</text><circle cx="693" cy="634" r="5" fill="#087e83" /><text x="708" y="638" font-size="12" font-weight="normal" fill="#24343a" letter-spacing="0">SuperZip L5</text><text x="854" y="638" font-size="12" font-weight="normal" fill="#24343a" letter-spacing="0">17,776,792</text><text x="998" y="638" font-size="12" font-weight="normal" fill="#24343a" letter-spacing="0">0.286 [0.277-0.298]</text><circle cx="693" cy="657" r="5" fill="#087e83" /><text x="708" y="661" font-size="12" font-weight="normal" fill="#24343a" letter-spacing="0">SuperZip L7</text><text x="854" y="661" font-size="12" font-weight="normal" fill="#24343a" letter-spacing="0">16,294,414</text><text x="998" y="661" font-size="12" font-weight="normal" fill="#24343a" letter-spacing="0">4.845 [4.808-5.025]</text><circle cx="693" cy="680" r="5" fill="#087e83" /><text x="708" y="684" font-size="12" font-weight="normal" fill="#24343a" letter-spacing="0">SuperZip L9</text><text x="854" y="684" font-size="12" font-weight="normal" fill="#24343a" letter-spacing="0">14,950,836</text><text x="998" y="684" font-size="12" font-weight="normal" fill="#24343a" letter-spacing="0">11.564 [11.295-11.763]</text><circle cx="693" cy="703" r="5" fill="#b15a22" /><text x="708" y="707" font-size="12" font-weight="normal" fill="#24343a" letter-spacing="0">Zstd L1</text><text x="854" y="707" font-size="12" font-weight="normal" fill="#24343a" letter-spacing="0">19,983,517</text><text x="998" y="707" font-size="12" font-weight="normal" fill="#24343a" letter-spacing="0">0.035 [0.034-0.038]</text><circle cx="693" cy="726" r="5" fill="#b15a22" /><text x="708" y="730" font-size="12" font-weight="normal" fill="#24343a" letter-spacing="0">Zstd L3</text><text x="854" y="730" font-size="12" font-weight="normal" fill="#24343a" letter-spacing="0">18,281,292</text><text x="998" y="730" font-size="12" font-weight="normal" fill="#24343a" letter-spacing="0">0.054 [0.053-0.055]</text><circle cx="693" cy="749" r="5" fill="#b15a22" /><text x="708" y="753" font-size="12" font-weight="normal" fill="#24343a" letter-spacing="0">Zstd L5</text><text x="854" y="753" font-size="12" font-weight="normal" fill="#24343a" letter-spacing="0">17,697,993</text><text x="998" y="753" font-size="12" font-weight="normal" fill="#24343a" letter-spacing="0">0.091 [0.089-0.094]</text><circle cx="693" cy="772" r="5" fill="#b15a22" /><text x="708" y="776" font-size="12" font-weight="normal" fill="#24343a" letter-spacing="0">Zstd L7</text><text x="854" y="776" font-size="12" font-weight="normal" fill="#24343a" letter-spacing="0">17,073,567</text><text x="998" y="776" font-size="12" font-weight="normal" fill="#24343a" letter-spacing="0">0.138 [0.137-0.143]</text><circle cx="693" cy="795" r="5" fill="#b15a22" /><text x="708" y="799" font-size="12" font-weight="normal" fill="#24343a" letter-spacing="0">Zstd L9</text><text x="854" y="799" font-size="12" font-weight="normal" fill="#24343a" letter-spacing="0">16,735,963</text><text x="998" y="799" font-size="12" font-weight="normal" fill="#24343a" letter-spacing="0">0.221 [0.219-0.232]</text><text x="684" y="841" font-size="11" font-weight="normal" fill="#24343a" letter-spacing="0">Dark outline: measured non-dominated point within this case</text><text x="36" y="893" font-size="18" font-weight="bold" fill="#24343a" letter-spacing="0">ZST / nci</text><text x="36" y="914" font-size="12" font-weight="normal" fill="#24343a" letter-spacing="0">Input 33,553,445 bytes  |  exact archive size; create wall time</text><line x1="72.0" x2="72.0" y1="950" y2="1179" stroke="#e5e9ea" /><text x="60" y="1198" font-size="11" font-weight="normal" fill="#24343a" letter-spacing="0">0</text><line x1="215.5" x2="215.5" y1="950" y2="1179" stroke="#e5e9ea" /><text x="203" y="1198" font-size="11" font-weight="normal" fill="#24343a" letter-spacing="0">8</text><line x1="359.0" x2="359.0" y1="950" y2="1179" stroke="#e5e9ea" /><text x="347" y="1198" font-size="11" font-weight="normal" fill="#24343a" letter-spacing="0">16</text><line x1="502.5" x2="502.5" y1="950" y2="1179" stroke="#e5e9ea" /><text x="491" y="1198" font-size="11" font-weight="normal" fill="#24343a" letter-spacing="0">24</text><line x1="646.0" x2="646.0" y1="950" y2="1179" stroke="#e5e9ea" /><text x="634" y="1198" font-size="11" font-weight="normal" fill="#24343a" letter-spacing="0">32</text><line x1="72" x2="646" y1="1179.0" y2="1179.0" stroke="#e5e9ea" /><text x="18" y="1183" font-size="11" font-weight="normal" fill="#24343a" letter-spacing="0">0.01s</text><line x1="72" x2="646" y1="1121.8" y2="1121.8" stroke="#e5e9ea" /><text x="18" y="1126" font-size="11" font-weight="normal" fill="#24343a" letter-spacing="0">0.1s</text><line x1="72" x2="646" y1="1064.5" y2="1064.5" stroke="#e5e9ea" /><text x="18" y="1068" font-size="11" font-weight="normal" fill="#24343a" letter-spacing="0">1s</text><line x1="72" x2="646" y1="1007.2" y2="1007.2" stroke="#e5e9ea" /><text x="18" y="1011" font-size="11" font-weight="normal" fill="#24343a" letter-spacing="0">10s</text><line x1="72" x2="646" y1="950.0" y2="950.0" stroke="#e5e9ea" /><text x="18" y="954" font-size="11" font-weight="normal" fill="#24343a" letter-spacing="0">100s</text><rect x="72" y="950" width="574" height="229" fill="none" stroke="#90a2a6" /><text x="265" y="1217" font-size="12" font-weight="normal" fill="#24343a" letter-spacing="0">Archive size (MiB)</text><polyline points="120.7,1127.9 120.8,1126.8 116.1,1115.6 103.5,1048.2 99.1,999.6" fill="none" stroke="#087e83" stroke-width="2" stroke-opacity="0.55" /><polyline points="120.8,1159.5 120.5,1154.4 116.2,1145.2 112.3,1137.7 110.4,1121.8" fill="none" stroke="#b15a22" stroke-width="2" stroke-opacity="0.55" /><g aria-label="SuperZip L1: 2848726 bytes, 0.078 s"><title>SuperZip L1: 2848726 bytes, 0.078 s</title><line x1="120.733" x2="120.733" y1="1129.142" y2="1125.616" stroke="#087e83" stroke-width="2" /><line x1="116.733" x2="124.733" y1="1129.142" y2="1129.142" stroke="#087e83" stroke-width="2" /><line x1="116.733" x2="124.733" y1="1125.616" y2="1125.616" stroke="#087e83" stroke-width="2" /><circle cx="120.7" cy="1127.9" r="6" fill="#087e83" stroke="#ffffff" stroke-width="2" /></g><g aria-label="Zstd L1: 2853982 bytes, 0.022 s"><title>Zstd L1: 2853982 bytes, 0.022 s</title><line x1="120.823" x2="120.823" y1="1160.718" y2="1157.953" stroke="#b15a22" stroke-width="2" /><line x1="116.823" x2="124.823" y1="1160.718" y2="1160.718" stroke="#b15a22" stroke-width="2" /><line x1="116.823" x2="124.823" y1="1157.953" y2="1157.953" stroke="#b15a22" stroke-width="2" /><circle cx="120.8" cy="1159.5" r="6" fill="#b15a22" stroke="#24343a" stroke-width="2" /></g><g aria-label="SuperZip L3: 2852239 bytes, 0.082 s"><title>SuperZip L3: 2852239 bytes, 0.082 s</title><line x1="120.793" x2="120.793" y1="1127.346" y2="1124.028" stroke="#087e83" stroke-width="2" /><line x1="116.793" x2="124.793" y1="1127.346" y2="1127.346" stroke="#087e83" stroke-width="2" /><line x1="116.793" x2="124.793" y1="1124.028" y2="1124.028" stroke="#087e83" stroke-width="2" /><circle cx="120.8" cy="1126.8" r="6" fill="#087e83" stroke="#ffffff" stroke-width="2" /></g><g aria-label="Zstd L3: 2835400 bytes, 0.027 s"><title>Zstd L3: 2835400 bytes, 0.027 s</title><line x1="120.505" x2="120.505" y1="1155.669" y2="1153.651" stroke="#b15a22" stroke-width="2" /><line x1="116.505" x2="124.505" y1="1155.669" y2="1155.669" stroke="#b15a22" stroke-width="2" /><line x1="116.505" x2="124.505" y1="1153.651" y2="1153.651" stroke="#b15a22" stroke-width="2" /><circle cx="120.5" cy="1154.4" r="6" fill="#b15a22" stroke="#24343a" stroke-width="2" /></g><g aria-label="SuperZip L5: 2578603 bytes, 0.128 s"><title>SuperZip L5: 2578603 bytes, 0.128 s</title><line x1="116.112" x2="116.112" y1="1116.600" y2="1114.313" stroke="#087e83" stroke-width="2" /><line x1="112.112" x2="120.112" y1="1116.600" y2="1116.600" stroke="#087e83" stroke-width="2" /><line x1="112.112" x2="120.112" y1="1114.313" y2="1114.313" stroke="#087e83" stroke-width="2" /><circle cx="116.1" cy="1115.6" r="6" fill="#087e83" stroke="#ffffff" stroke-width="2" /></g><g aria-label="Zstd L5: 2583327 bytes, 0.039 s"><title>Zstd L5: 2583327 bytes, 0.039 s</title><line x1="116.193" x2="116.193" y1="1145.597" y2="1143.383" stroke="#b15a22" stroke-width="2" /><line x1="112.193" x2="120.193" y1="1145.597" y2="1145.597" stroke="#b15a22" stroke-width="2" /><line x1="112.193" x2="120.193" y1="1143.383" y2="1143.383" stroke="#b15a22" stroke-width="2" /><circle cx="116.2" cy="1145.2" r="6" fill="#b15a22" stroke="#24343a" stroke-width="2" /></g><g aria-label="SuperZip L7: 1838951 bytes, 1.924 s"><title>SuperZip L7: 1838951 bytes, 1.924 s</title><line x1="103.459" x2="103.459" y1="1048.745" y2="1047.821" stroke="#087e83" stroke-width="2" /><line x1="99.459" x2="107.459" y1="1048.745" y2="1048.745" stroke="#087e83" stroke-width="2" /><line x1="99.459" x2="107.459" y1="1047.821" y2="1047.821" stroke="#087e83" stroke-width="2" /><circle cx="103.5" cy="1048.2" r="6" fill="#087e83" stroke="#24343a" stroke-width="2" /></g><g aria-label="Zstd L7: 2357794 bytes, 0.053 s"><title>Zstd L7: 2357794 bytes, 0.053 s</title><line x1="112.335" x2="112.335" y1="1138.153" y2="1137.421" stroke="#b15a22" stroke-width="2" /><line x1="108.335" x2="116.335" y1="1138.153" y2="1138.153" stroke="#b15a22" stroke-width="2" /><line x1="108.335" x2="116.335" y1="1137.421" y2="1137.421" stroke="#b15a22" stroke-width="2" /><circle cx="112.3" cy="1137.7" r="6" fill="#b15a22" stroke="#24343a" stroke-width="2" /></g><g aria-label="SuperZip L9: 1586505 bytes, 13.625 s"><title>SuperZip L9: 1586505 bytes, 13.625 s</title><line x1="99.140" x2="99.140" y1="1000.408" y2="998.978" stroke="#087e83" stroke-width="2" /><line x1="95.140" x2="103.140" y1="1000.408" y2="1000.408" stroke="#087e83" stroke-width="2" /><line x1="95.140" x2="103.140" y1="998.978" y2="998.978" stroke="#087e83" stroke-width="2" /><circle cx="99.1" cy="999.6" r="6" fill="#087e83" stroke="#24343a" stroke-width="2" /></g><g aria-label="Zstd L9: 2247493 bytes, 0.100 s"><title>Zstd L9: 2247493 bytes, 0.100 s</title><line x1="110.448" x2="110.448" y1="1122.222" y2="1119.274" stroke="#b15a22" stroke-width="2" /><line x1="106.448" x2="114.448" y1="1122.222" y2="1122.222" stroke="#b15a22" stroke-width="2" /><line x1="106.448" x2="114.448" y1="1119.274" y2="1119.274" stroke="#b15a22" stroke-width="2" /><circle cx="110.4" cy="1121.8" r="6" fill="#b15a22" stroke="#24343a" stroke-width="2" /></g><text x="683" y="942" font-size="12" font-weight="bold" fill="#24343a" letter-spacing="0">Tool / effort</text><text x="854" y="942" font-size="12" font-weight="bold" fill="#24343a" letter-spacing="0">Archive bytes</text><text x="998" y="942" font-size="12" font-weight="bold" fill="#24343a" letter-spacing="0">Create s [min-max]</text><circle cx="693" cy="963" r="5" fill="#087e83" /><text x="708" y="967" font-size="12" font-weight="normal" fill="#24343a" letter-spacing="0">SuperZip L1</text><text x="854" y="967" font-size="12" font-weight="normal" fill="#24343a" letter-spacing="0">2,848,726</text><text x="998" y="967" font-size="12" font-weight="normal" fill="#24343a" letter-spacing="0">0.078 [0.074-0.086]</text><circle cx="693" cy="986" r="5" fill="#087e83" /><text x="708" y="990" font-size="12" font-weight="normal" fill="#24343a" letter-spacing="0">SuperZip L3</text><text x="854" y="990" font-size="12" font-weight="normal" fill="#24343a" letter-spacing="0">2,852,239</text><text x="998" y="990" font-size="12" font-weight="normal" fill="#24343a" letter-spacing="0">0.082 [0.080-0.091]</text><circle cx="693" cy="1009" r="5" fill="#087e83" /><text x="708" y="1013" font-size="12" font-weight="normal" fill="#24343a" letter-spacing="0">SuperZip L5</text><text x="854" y="1013" font-size="12" font-weight="normal" fill="#24343a" letter-spacing="0">2,578,603</text><text x="998" y="1013" font-size="12" font-weight="normal" fill="#24343a" letter-spacing="0">0.128 [0.123-0.135]</text><circle cx="693" cy="1032" r="5" fill="#087e83" /><text x="708" y="1036" font-size="12" font-weight="normal" fill="#24343a" letter-spacing="0">SuperZip L7</text><text x="854" y="1036" font-size="12" font-weight="normal" fill="#24343a" letter-spacing="0">1,838,951</text><text x="998" y="1036" font-size="12" font-weight="normal" fill="#24343a" letter-spacing="0">1.924 [1.885-1.956]</text><circle cx="693" cy="1055" r="5" fill="#087e83" /><text x="708" y="1059" font-size="12" font-weight="normal" fill="#24343a" letter-spacing="0">SuperZip L9</text><text x="854" y="1059" font-size="12" font-weight="normal" fill="#24343a" letter-spacing="0">1,586,505</text><text x="998" y="1059" font-size="12" font-weight="normal" fill="#24343a" letter-spacing="0">13.625 [13.168-13.947]</text><circle cx="693" cy="1078" r="5" fill="#b15a22" /><text x="708" y="1082" font-size="12" font-weight="normal" fill="#24343a" letter-spacing="0">Zstd L1</text><text x="854" y="1082" font-size="12" font-weight="normal" fill="#24343a" letter-spacing="0">2,853,982</text><text x="998" y="1082" font-size="12" font-weight="normal" fill="#24343a" letter-spacing="0">0.022 [0.021-0.023]</text><circle cx="693" cy="1101" r="5" fill="#b15a22" /><text x="708" y="1105" font-size="12" font-weight="normal" fill="#24343a" letter-spacing="0">Zstd L3</text><text x="854" y="1105" font-size="12" font-weight="normal" fill="#24343a" letter-spacing="0">2,835,400</text><text x="998" y="1105" font-size="12" font-weight="normal" fill="#24343a" letter-spacing="0">0.027 [0.026-0.028]</text><circle cx="693" cy="1124" r="5" fill="#b15a22" /><text x="708" y="1128" font-size="12" font-weight="normal" fill="#24343a" letter-spacing="0">Zstd L5</text><text x="854" y="1128" font-size="12" font-weight="normal" fill="#24343a" letter-spacing="0">2,583,327</text><text x="998" y="1128" font-size="12" font-weight="normal" fill="#24343a" letter-spacing="0">0.039 [0.038-0.042]</text><circle cx="693" cy="1147" r="5" fill="#b15a22" /><text x="708" y="1151" font-size="12" font-weight="normal" fill="#24343a" letter-spacing="0">Zstd L7</text><text x="854" y="1151" font-size="12" font-weight="normal" fill="#24343a" letter-spacing="0">2,357,794</text><text x="998" y="1151" font-size="12" font-weight="normal" fill="#24343a" letter-spacing="0">0.053 [0.052-0.053]</text><circle cx="693" cy="1170" r="5" fill="#b15a22" /><text x="708" y="1174" font-size="12" font-weight="normal" fill="#24343a" letter-spacing="0">Zstd L9</text><text x="854" y="1174" font-size="12" font-weight="normal" fill="#24343a" letter-spacing="0">2,247,493</text><text x="998" y="1174" font-size="12" font-weight="normal" fill="#24343a" letter-spacing="0">0.100 [0.098-0.110]</text><text x="684" y="1216" font-size="11" font-weight="normal" fill="#24343a" letter-spacing="0">Dark outline: measured non-dominated point within this case</text><text x="36" y="1251" font-size="12" font-weight="normal" fill="#24343a" letter-spacing="0">Observed ranges are not confidence intervals; format/corpus panels are not pooled.</text></svg>
